<svg
            width="67"
            height="46"
            viewBox="0 0 67 46"
            fill="none"
            xmlns="http://www.w3.org/2000/svg"
        >
            <path
                d="M8.3003 3.77099C7.71924 7.4907 7.3276 11.2579 7.11037 15.0175C7.06436 15.8091 7.04724 17.0451 8.00388 17.3147C8.77541 17.5304 9.62719 16.9825 10.2307 16.5597C12.1504 15.2332 13.7716 13.4267 15.305 11.6742C15.6335 11.2989 16.0177 10.9257 16.297 10.5094C16.4971 10.2117 16.45 9.82132 16.3687 9.48483C16.1429 8.55409 15.4398 7.75925 14.7636 7.13264C13.0653 5.56559 10.9359 4.4871 8.85567 3.54127C8.42015 3.34282 8.03813 3.99315 8.47793 4.18836C10.3024 5.02958 12.1601 5.95817 13.7267 7.23833C14.4308 7.81209 15.1766 8.50233 15.5362 9.36296C15.5743 9.45837 15.6068 9.55596 15.6335 9.65523C15.6543 9.72974 15.669 9.80586 15.6774 9.88279C15.6774 9.9475 15.6774 10.0111 15.6774 10.0758C15.6774 10.1643 15.7202 10.0758 15.6774 10.1147C15.656 10.1319 15.8625 9.88819 15.671 10.0931C15.4976 10.2786 15.3414 10.4857 15.1755 10.6787C13.8069 12.2738 12.373 13.8473 10.7658 15.2084C10.1419 15.7347 9.37465 16.4087 8.55604 16.5813C8.3324 16.6288 8.16012 16.6298 8.04455 16.4886C7.8712 16.2729 7.83909 15.877 7.83695 15.5729C7.82625 14.2906 7.99104 12.9845 8.10447 11.7098C8.22218 10.3818 8.36022 9.05595 8.51859 7.73228C8.66733 6.478 8.82677 5.22371 9.02153 3.9759C9.0975 3.49597 8.37627 3.29106 8.3003 3.77099Z"
                fill="#333333"
            />
            <path
                d="M29.0092 4.43513C29.5368 7.81081 29.8909 11.2296 30.1189 14.6333C30.1606 15.2621 30.3126 16.0354 30.1189 16.6598C30.0397 16.9187 29.9541 17.033 29.7497 17.0664C29.1943 17.1559 28.3426 16.5088 27.8632 16.1497C26.1371 14.8555 24.6529 13.2011 23.2319 11.5812C23.0043 11.3209 22.7789 11.0589 22.5556 10.795C22.4839 10.7109 22.3662 10.4952 22.2635 10.4456C21.9949 10.314 22.4539 10.6613 22.3491 10.5782C22.2934 10.5362 22.3491 10.6332 22.3491 10.5394C22.3329 10.3971 22.349 10.2529 22.3961 10.1177C22.6102 9.28511 23.31 8.56899 23.9478 8.00278C25.5764 6.55653 27.5978 5.55245 29.5603 4.65946C29.999 4.45994 29.6181 3.80961 29.1826 4.01237C27.2404 4.89565 25.296 5.89218 23.6492 7.27372C22.9002 7.9014 22.1618 8.65527 21.7905 9.58062C21.6503 9.92789 21.5112 10.4057 21.6321 10.7821C21.7391 11.1132 22.1083 11.4291 22.3266 11.6794C23.8097 13.4049 25.3699 15.1305 27.159 16.5498C27.8332 17.0826 28.6689 17.7491 29.5614 17.8171C30.4281 17.8839 30.8455 17.1861 30.9257 16.4021C31.0456 15.2157 30.8283 13.955 30.7299 12.774C30.6108 11.3519 30.4681 9.9322 30.3019 8.51507C30.136 7.08607 29.9562 5.65814 29.7347 4.23669C29.6566 3.75784 28.9343 3.9606 29.0092 4.43513Z"
                fill="#333333"
            />
            <path
                d="M29.2637 19.2374C29.2033 18.5398 29.0593 17.8736 28.8435 17.242L25.3616 14.0968C25.4255 14.1549 22.8028 11.165 22.9565 11.2318C22.8061 11.1653 22.6545 11.1016 22.5019 11.0409C20.3535 10.1862 17.8538 9.86758 15.5609 10.3597C15.5609 10.3597 12.4519 14.0038 11.3943 14.8387L9.18897 16.3784C9.14069 16.5527 9.0972 16.7286 9.0585 16.9057C8.73747 18.3574 8.70751 19.8759 8.64866 21.3556C8.60799 22.3909 8.60585 23.4263 8.61335 24.4627C8.61335 24.9922 8.62298 25.5153 8.49992 26.0179C8.33619 26.6919 8.02052 27.3261 7.72518 27.9495C7.1024 29.2641 6.52028 30.4785 6.64119 31.9798C6.69417 32.583 6.8203 33.1773 7.01679 33.7496C7.1238 34.0731 7.22225 34.5908 7.417 34.868C7.42763 34.8971 7.43411 34.9276 7.43626 34.9586C7.40095 34.9586 7.64279 34.69 7.65028 34.7429C7.55146 34.7 7.45501 34.6517 7.36136 34.5984C7.02214 34.3471 6.7375 33.9847 6.48496 33.6493C5.79583 32.7326 5.20943 31.6649 4.9387 30.5411C4.82527 30.0698 4.75893 29.5456 4.90874 29.0754C5.10456 28.4553 5.73163 28.1048 6.06228 27.559C6.57592 26.7103 6.62086 25.5854 6.06228 24.7442C5.82687 24.3904 5.37101 24.2049 4.97509 24.11C3.92641 23.8534 2.89058 24.2535 2.06662 24.9049C1.06289 25.6976 0.247488 26.7383 0.057014 28.0325C-0.105638 29.1552 0.0987469 30.3157 0.429401 31.3952C1.10783 33.6417 2.31488 35.7976 3.78516 37.6127C4.19286 38.1164 4.67011 38.7225 5.28327 38.9716C5.92531 39.2305 6.67437 39.2704 7.35494 39.334C9.74656 39.5551 12.1639 39.5562 14.563 39.5562C15.6053 39.5562 16.6498 39.5307 17.6942 39.5125C18.2224 39.5033 19.29 42.3447 21.1561 43.7001C23.4527 45.3682 27.3106 45.6168 27.3106 45.6168L28.4646 39.1001C29.5251 38.8391 28.9619 38.386 29.5462 37.3679C29.8405 36.8556 29.9988 36.2042 30.1711 35.6423C30.3064 35.2147 30.4094 34.7774 30.4793 34.3341C30.6355 33.2837 30.5446 32.2224 30.4408 31.1709C30.2267 28.9891 29.9582 26.8138 29.7442 24.632C29.5679 22.8345 29.4078 21.0371 29.2637 19.2396C29.2252 18.7586 28.475 18.7542 28.5146 19.2396C28.7615 22.291 29.0525 25.3381 29.3878 28.3809C29.5483 29.8293 29.7581 31.2852 29.8094 32.7434C29.8493 33.5844 29.7484 34.4263 29.5109 35.2336C29.3652 35.7568 29.1923 36.272 28.993 36.7769C28.7509 37.3709 28.5171 42.68 27.6953 44.8501C27.3106 45.6168 25.772 45.2335 25.772 45.2335L22.3101 44.0835L20.0022 42.1668C19.0851 42.1172 17.6942 38.7168 17.6942 38.7168C15.2876 38.7524 13.2553 38.8174 10.8498 38.7549C9.76261 38.7268 8.67541 38.6869 7.59142 38.5952C6.9344 38.5402 6.15966 38.5251 5.54116 38.262C5.07781 38.0646 4.59414 37.4294 4.25706 37.0023C3.56931 36.1277 2.96052 35.1929 2.43793 34.209C1.43099 32.3454 0.27531 29.8045 0.907725 27.6378C1.25336 26.4514 2.44007 25.2651 3.60325 24.8909C3.99513 24.7596 4.41592 24.7432 4.81671 24.8434C5.04999 24.9049 5.2212 25.0408 5.43629 25.126C5.49942 25.1508 5.38706 25.0699 5.38599 25.0677C5.44057 25.1756 5.51975 25.278 5.57112 25.3913C5.67663 25.6299 5.73116 25.8882 5.73116 26.1495C5.73116 26.4107 5.67663 26.669 5.57112 26.9076C5.29611 27.5321 4.68509 27.8653 4.37156 28.451C4.16287 28.8566 4.06326 29.3102 4.08264 29.7667C4.11046 30.8549 4.56632 31.9237 5.08637 32.8598C5.53688 33.6687 6.09332 34.5153 6.81027 35.1117C7.18158 35.4212 8.12111 35.8106 8.18425 34.9952C8.20565 34.7148 8.05798 34.4161 7.96167 34.1616C7.77995 33.7031 7.63014 33.2325 7.51331 32.7531C7.35307 32.0714 7.33051 31.3643 7.44696 30.6737C7.58393 29.9188 7.93385 29.2566 8.26236 28.5696C8.58338 27.902 8.91832 27.2279 9.14089 26.5205C9.52184 25.3082 9.34421 23.9601 9.3624 22.7101C9.3838 21.2132 9.43623 19.699 9.60103 18.2107C9.65813 17.6412 9.76644 17.0791 9.92409 16.5312C10.0577 16.0667 12.497 14.4677 12.497 14.4677L15.5609 11.165C16.7594 10.8753 18.0368 10.8205 19.2906 10.9816C20.5336 11.1411 21.788 11.5011 22.9565 12.0482C24.0639 12.5668 24.994 14.4677 24.994 14.4677C24.994 14.4677 27.137 15.3968 27.5669 16.1653C27.6715 16.3522 27.7692 16.5436 27.8597 16.7396C28.2209 17.5286 28.4433 18.3749 28.5168 19.2406C28.5564 19.7173 29.3054 19.7217 29.2637 19.2374Z"
                fill="#333333"
            />
            <path
                d="M18.4599 20.2338C18.386 21.6715 16.1057 21.6736 16.0319 20.2338C16.0073 19.7507 15.2582 19.7474 15.2828 20.2338C15.4059 22.6421 19.0859 22.6432 19.2089 20.2338C19.2335 19.7485 18.4845 19.7496 18.4599 20.2338Z"
                fill="#333333"
            />
            <path
                d="M21.6425 20.2338C21.5687 21.6715 19.2883 21.6736 19.2145 20.2338C19.1899 19.7507 18.4408 19.7474 18.4654 20.2338C18.5885 22.6421 22.2685 22.6432 22.3915 20.2338C22.4162 19.7485 21.6671 19.7496 21.6425 20.2338Z"
                fill="#333333"
            />
            <path
                d="M24.9283 17.6878C24.9005 17.1002 24.6471 16.5465 24.2215 16.1439C23.7959 15.7413 23.2315 15.5215 22.6479 15.5308C21.4323 15.5308 20.4179 16.4508 20.3676 17.6878C20.3473 18.1731 21.0963 18.1731 21.1166 17.6878C21.1916 15.8641 24.1043 15.8619 24.1792 17.6878C24.1995 18.172 24.9486 18.1742 24.9283 17.6878Z"
                fill="#333333"
            />
            <path
                d="M16.8882 17.6177C16.8605 17.0301 16.607 16.4764 16.1814 16.0738C15.7558 15.6713 15.1915 15.4514 14.6079 15.4607C13.3923 15.4607 12.3778 16.3807 12.3276 17.6177C12.3072 18.103 13.0563 18.103 13.0766 17.6177C13.1515 15.794 16.0643 15.7918 16.1392 17.6177C16.1595 18.102 16.9086 18.1041 16.8882 17.6177Z"
                fill="#333333"
            />
            <path
                d="M19.9752 19.2991C19.9399 19.5676 19.2786 19.7736 19.0764 19.806C18.6944 19.8675 18.0138 19.7402 17.7923 19.3638C17.7334 19.2624 17.7067 19.4231 17.7687 19.3325C17.8115 19.27 17.9614 19.2419 18.0288 19.2247C18.2658 19.1546 18.5115 19.1183 18.7586 19.1168C18.9726 19.1168 19.9356 19.1039 19.9859 19.4026C20.0641 19.8804 20.7864 19.6776 20.7082 19.202C20.567 18.3457 19.1031 18.3198 18.4846 18.377C17.9132 18.4298 16.7811 18.6833 17.0186 19.504C17.2391 20.2687 18.3209 20.6235 19.0165 20.5717C19.712 20.5199 20.6216 20.0767 20.7232 19.3023C20.7874 18.8192 20.0384 18.8246 19.9752 19.2991Z"
                fill="#333333"
            />
            <path
                d="M17.0085 10.5091L16.9678 12.7739C16.9593 13.2603 17.7083 13.2603 17.7169 12.7739L17.7576 10.5091C17.7661 10.0227 17.0171 10.0227 17.0085 10.5091Z"
                fill="#333333"
            />
            <path
                d="M18.3874 10.5091L18.3468 12.7739C18.3382 13.2603 19.0872 13.2603 19.0958 12.7739L19.1365 10.5091C19.1134 10.3871 18.396 10.0227 18.3874 10.5091Z"
                fill="#333333"
            />
            <path
                d="M19.7276 10.7581V12.774C19.7191 13.2604 20.4681 13.2604 20.4767 12.774V10.7581C20.4852 10.2717 19.7362 10.2717 19.7276 10.7581Z"
                fill="#333333"
            />
            <path
                d="M48.1895 1.21912C47.8417 1.21373 47.2425 1.21373 47.0124 1.54267C47.0069 1.55072 47.0011 1.55845 46.9953 1.56588C46.4054 2.55798 46.4522 3.82808 46.5116 4.94315C46.5384 5.46298 46.4742 5.49916 46.5116 6.01792L45.784 5.77808C45.7626 5.17844 45.8225 5.82212 45.784 5.22356C45.6981 3.91048 45.6502 2.41352 46.3223 1.2382C46.3331 1.21089 46.348 1.18324 46.3672 1.15549C47.2543 -0.107423 49.5614 0.546143 50.7245 0.939792C52.7812 1.63218 54.5137 2.89941 55.9315 4.54411C56.8764 5.64309 58.3263 7.48515 57.8801 9.07377C57.4489 10.6052 55.4714 10.1738 54.4013 9.74243C52.4668 8.95862 50.7298 7.57469 49.3461 5.99371C49.1588 6.51271 48.9003 7.00601 48.6165 7.47437L48.0675 6.91463C48.4085 6.3579 48.6613 5.75096 48.8166 5.11571C48.8744 4.85579 49.266 4.73392 49.4426 4.94962C50.8315 6.66981 52.6571 8.26167 54.732 9.06838C55.5474 9.38438 57.3001 9.83626 57.1931 8.40295C57.0744 6.83051 55.695 5.31846 54.6506 4.27664C53.4075 3.01392 51.8727 2.08193 50.1841 1.56424C49.5389 1.3544 48.8673 1.23819 48.1895 1.21912Z"
                fill="#333333"
            />
            <path
                d="M36.0608 0.0306159C37.2807 -0.0610559 39.2068 -0.0308581 39.7418 1.35177C39.757 1.39129 39.7654 1.42885 39.7679 1.4642C40.1312 2.86347 39.8247 4.29812 39.3983 5.63553L38.5936 5.9355C38.9489 4.80308 39.348 2.73116 39.0153 1.55345C39.012 1.54188 39.0092 1.53047 39.0069 1.51924C38.7715 1.00451 37.9929 0.866976 37.5064 0.807129C36.6279 0.69928 35.7173 0.79203 34.8527 0.955961C33.0344 1.29176 31.2893 1.94897 29.6981 2.89724C29.0894 3.27109 28.0174 3.98105 27.8306 4.81372L29.4047 4.08065L29.8578 6.37151C30.388 6.36901 30.912 6.29226 31.2829 6.23302C33.0753 5.94461 34.8069 5.35473 36.4053 4.48802C36.4623 4.45584 36.5265 4.43904 36.5918 4.43926C36.6571 4.43947 36.7212 4.4567 36.778 4.48925C36.8347 4.52181 36.8821 4.56859 36.9157 4.62506C36.9492 4.68154 36.9676 4.74578 36.9693 4.81157C37.0485 6.05938 36.9982 5.80382 37.1234 7.0484L36.4053 7.41937C36.3072 6.40889 36.2979 6.14417 36.2537 5.4125C34.3414 6.37474 32.1144 7.08523 29.9913 7.09905C29.8733 7.09987 29.752 7.09687 29.629 7.08944L29.2431 4.62506L27.1993 5.56453L27.0587 5.08446C27.043 3.63866 28.6379 2.60382 29.7398 1.99671C31.6606 0.938705 33.8714 0.193468 36.0608 0.0306159Z"
                fill="#333333"
            />
            <path
                d="M66.0155 27.1147C65.8881 26.3921 65.3574 25.7483 64.8673 25.236C64.201 24.5403 63.421 23.9653 62.5613 23.5363C61.7309 23.1254 60.7935 22.8353 59.8582 22.9161C59.3007 22.9647 58.4147 23.1221 58.2167 23.7574C58.0541 24.2815 58.5025 24.7722 58.831 25.1141C59.3596 25.6641 59.9578 26.1451 60.45 26.7318C61.0128 27.4037 61.2108 28.026 61.0203 28.8975C60.7664 29.9678 60.2464 30.9554 59.5094 31.7673C58.9455 32.4015 58.1322 33.1467 57.2355 33.1801C57.142 33.1656 57.0475 33.1598 56.953 33.1629L56.861 33.1402C56.9879 33.2301 57.0354 33.3322 57.0033 33.4465C57.0336 33.3695 57.0566 33.2897 57.0718 33.2082C57.1788 32.8782 57.3179 32.5611 57.4281 32.2311C58.0905 30.2617 58.0573 28.0843 56.6106 26.4622C55.2055 24.8865 54.3249 22.9183 53.6347 20.9339C53.261 19.873 52.9564 18.7886 52.723 17.6876C52.525 16.7353 52.4672 15.783 52.3538 14.8188C51.9814 11.6524 50.8054 8.40182 48.2586 6.36023C47.2592 5.56553 46.1007 4.9986 44.863 4.69847C43.6253 4.39834 42.3378 4.37215 41.0891 4.6217C38.431 5.13075 36.1154 6.81212 34.5723 9.0241C33.675 10.3343 33.0223 11.7984 32.6462 13.3445C32.2332 14.9903 32.1861 16.6663 32.0855 18.3509C31.6853 25.071 31.0689 31.7803 30.4461 38.482C30.4319 38.633 30.4176 38.784 30.4033 38.935C30.4032 39.0176 30.4301 39.0979 30.4798 39.1636C30.5295 39.2293 30.5993 39.2766 30.6783 39.2984C32.4375 39.5896 34.2214 39.7654 35.9987 39.8894C39.3588 40.1245 42.8076 40.1634 46.1259 39.513C46.9153 39.364 47.6923 39.1545 48.4502 38.8864C48.6278 38.8217 48.8086 38.715 48.9734 38.6858C49.1427 38.6757 49.3125 38.6818 49.4806 38.7042C50.9402 38.7538 52.4009 38.7958 53.8615 38.812C57.0889 38.8584 60.4083 38.7225 63.0289 36.572C65.8228 34.2791 66.5034 30.5454 66.0176 27.1104C65.9502 26.6315 65.2279 26.8354 65.2953 27.311C65.718 30.3006 65.1744 33.5501 62.8994 35.6876C60.4853 37.9525 57.1788 38.1013 54.0595 38.0603C52.6106 38.042 51.1628 38.001 49.7139 37.9525C49.455 37.9438 49.1618 37.8932 48.9028 37.9244C48.5711 37.9643 48.2233 38.1682 47.9044 38.2728C47.5459 38.3903 47.1832 38.4885 46.8172 38.5834C43.6327 39.3707 40.2555 39.3664 36.9993 39.1917C34.9471 39.0973 32.9017 38.8899 30.872 38.5704L31.147 38.9339C31.6938 33.1241 32.2032 27.3099 32.6205 21.4893C32.8559 18.1977 32.6976 14.7164 33.9956 11.6222C35.0699 9.06832 37.0538 6.85742 39.6466 5.82422C41.9227 4.91829 44.523 4.97545 46.6803 6.18444C49.3051 7.65766 50.7647 10.4736 51.3661 13.3542C51.5662 14.313 51.6294 15.275 51.7364 16.2457C51.8489 17.2024 52.0317 18.1494 52.2832 19.0789C52.8343 21.1733 53.6069 23.2677 54.7058 25.1368C54.9251 25.5125 55.1651 25.8754 55.4249 26.2239C55.7352 26.6369 56.1162 26.9928 56.404 27.421C57.0397 28.369 57.2269 29.5014 57.0611 30.622C56.9444 31.4082 56.663 32.1405 56.3944 32.8868C56.2189 33.3732 56.1922 33.783 56.801 33.9027C58.5474 34.2468 60.1686 32.3875 60.9508 31.0555C61.4366 30.2294 61.794 29.2922 61.8539 28.328C61.901 27.5806 61.5629 26.9346 61.1124 26.3641C60.6394 25.7666 60.0583 25.2759 59.519 24.7463C59.3275 24.5576 58.7796 24.1165 59.0236 23.9116C59.305 23.6743 59.8893 23.6581 60.2328 23.6657C60.7193 23.6849 61.1992 23.7859 61.6528 23.9644C62.5926 24.3306 63.4475 24.8879 64.1642 25.6016C64.6372 26.0632 65.1744 26.6434 65.2942 27.3272C65.3777 27.7931 66.1 27.5903 66.0155 27.1147Z"
                fill="#333333"
            />
            <path
                d="M42.2686 15.7971C42.1927 17.555 39.389 17.5583 39.312 15.7971C39.2906 15.3129 38.5415 15.3107 38.5629 15.7971C38.5896 16.3713 38.8371 16.9124 39.2531 17.3056C39.669 17.6988 40.2206 17.9133 40.7909 17.9034C41.9808 17.9034 42.9663 17.005 43.0177 15.8014C43.0391 15.3161 42.29 15.3172 42.2686 15.8014V15.7971Z"
                fill="#333333"
            />
            <path
                d="M45.9825 15.7971C45.9065 17.555 43.1029 17.5583 43.0259 15.7971C43.0045 15.3129 42.2554 15.3107 42.2768 15.7971C42.3034 16.3711 42.5509 16.912 42.9666 17.3052C43.3823 17.6984 43.9336 17.913 44.5036 17.9034C45.6936 17.9034 46.6791 17.005 46.7305 15.8014C46.7519 15.3161 46.0028 15.3172 45.9814 15.8014L45.9825 15.7971Z"
                fill="#333333"
            />
            <path
                d="M44.0577 17.954C43.9817 19.7119 41.1781 19.7151 41.1011 17.954C41.0797 17.4697 40.3306 17.4676 40.352 17.954C40.3786 18.5279 40.626 19.0689 41.0418 19.4621C41.4575 19.8553 42.0088 20.0698 42.5788 20.0602C43.7688 20.0602 44.7543 19.1619 44.8057 17.9583C44.8271 17.4729 44.078 17.474 44.0566 17.9583L44.0577 17.954Z"
                fill="#333333"
            />
            <path
                d="M49.8372 12.5744C49.7869 11.1724 48.6173 10.1273 47.2391 10.1273C45.8608 10.1273 44.6923 11.1735 44.6409 12.5744C44.6238 13.0608 45.3728 13.0597 45.39 12.5744C45.4702 10.3667 49.0079 10.3657 49.0871 12.5744C49.1042 13.0587 49.8533 13.0608 49.8362 12.5744H49.8372Z"
                fill="#333333"
            />
            <path
                d="M40.9592 12.5109C40.9089 11.1089 39.7393 10.0638 38.361 10.0638C36.9828 10.0638 35.8143 11.1089 35.764 12.5109C35.7468 12.9973 36.4959 12.9963 36.513 12.5109C36.5933 10.3033 40.1309 10.3022 40.2101 12.5109C40.2272 12.9952 40.9763 12.9973 40.9592 12.5109Z"
                fill="#333333"
            />
            <path
                d="M44.0322 14.7067C43.9862 15.0982 43.1226 15.3441 42.8305 15.3721C42.4217 15.411 41.5207 15.2449 41.342 14.7768C41.2992 14.669 41.2425 14.8512 41.342 14.7002C41.3977 14.6194 41.5742 14.5924 41.663 14.56C41.9566 14.4723 42.2611 14.4276 42.5673 14.4274C42.8326 14.422 43.9883 14.4144 44.045 14.807C44.1135 15.2859 44.8348 15.082 44.7673 14.6064C44.6325 13.6584 42.9611 13.6358 42.288 13.6854C41.6705 13.7361 40.3244 13.9906 40.5759 14.9105C40.8123 15.7733 42.0515 16.1799 42.8294 16.1271C43.6074 16.0742 44.6764 15.5878 44.7802 14.7067C44.8422 14.2246 44.0921 14.2289 44.0322 14.7067Z"
                fill="#333333"
            />
            <path
                d="M42.1412 17.0655L42.1016 17.7978C42.1016 17.8979 42.141 17.9939 42.2113 18.0647C42.2815 18.1355 42.3768 18.1752 42.4761 18.1752C42.5754 18.1752 42.6707 18.1355 42.7409 18.0647C42.8112 17.9939 42.8506 17.8979 42.8506 17.7978L42.8913 17.0655C42.8913 16.9653 42.8518 16.8693 42.7816 16.7985C42.7113 16.7278 42.6161 16.688 42.5168 16.688C42.4174 16.688 42.3222 16.7278 42.2519 16.7985C42.1817 16.8693 42.1422 16.9653 42.1422 17.0655H42.1412Z"
                fill="#333333"
            />
            <path
                d="M44.3239 34.3316C44.3239 40.1953 52.1033 45.9005 46.2853 45.9005C43.4915 45.9005 40.812 44.782 38.8364 42.7908C36.8608 40.7997 35.751 38.0992 35.751 35.2833C35.751 32.4675 36.8608 29.767 38.8364 27.7758C40.812 25.7847 43.4915 24.6661 46.2853 24.6661C52.1033 24.6651 44.3239 28.4667 44.3239 34.3316Z"
                fill="#F0BC5E"
            />
            <path
                d="M27.7256 24.4838V45.716C30.5008 45.6878 33.1528 44.5569 35.1054 42.5691C37.058 40.5812 38.1532 37.8971 38.1532 35.0999C38.1532 32.3027 37.058 29.6185 35.1054 27.6307C33.1528 25.6429 30.5008 24.512 27.7256 24.4838Z"
                fill="#F0BC5E"
            />
            <path
                d="M43.9436 34.0546C43.9629 36.0983 44.7997 38.0127 45.7552 39.7706C46.2132 40.614 46.7183 41.4336 47.1838 42.2705C47.5123 42.8551 47.8804 43.4741 48.0249 44.1374C48.3641 45.6969 45.5573 45.2526 44.7569 45.1296C42.5196 44.7818 40.4601 43.6954 38.9014 42.0408C35.674 38.6123 35.2321 33.2446 37.8313 29.3146C39.0874 27.4217 40.9318 26.003 43.0747 25.2811C44.1868 24.9126 45.3532 24.7379 46.5236 24.7645C46.9216 24.7731 47.7788 24.7548 48.0217 25.0697C48.0912 25.1592 48.0655 25.2768 48.0035 25.4536C47.8904 25.7313 47.7437 25.994 47.5669 26.2355C47.1089 26.9268 46.5931 27.5761 46.1212 28.2577C44.9291 29.9833 43.9597 31.9052 43.9382 34.0492C43.9382 34.5356 44.6873 34.5356 44.6873 34.0492C44.7076 31.9429 45.7424 30.089 46.9227 28.4173C47.385 27.7627 47.8858 27.1339 48.3138 26.4545C48.577 26.0371 48.8981 25.4968 48.7814 24.9791C48.6605 24.4398 48.1265 24.2101 47.6386 24.1163C46.6338 23.9168 45.553 23.9912 44.5482 24.1476C42.1374 24.5355 39.9256 25.7276 38.2668 27.533C34.8843 31.2225 34.4146 36.9557 37.2117 41.1295C38.547 43.1201 40.4861 44.6211 42.7387 45.4079C43.9166 45.8167 45.1559 46.0167 46.4016 45.9989C47.0811 45.9881 47.9307 45.9309 48.4422 45.4133C49.4438 44.3995 48.2282 42.5876 47.6931 41.6547C46.6145 39.7641 45.4053 37.8865 44.8981 35.7392C44.7671 35.1872 44.6982 34.6221 44.6927 34.0546C44.6884 33.5682 43.9393 33.5671 43.9436 34.0546Z"
                fill="#333333"
            />
            <path
                d="M26.9579 24.2554V45.4866L27.3324 45.1091C23.1409 45.0509 19.2961 42.3795 17.858 38.3848C17.3009 36.8434 17.1192 35.1897 17.3282 33.5629C17.5372 31.936 18.1307 30.3835 19.0588 29.0359C19.9869 27.6883 21.2225 26.585 22.6617 25.8188C24.1009 25.0526 25.7016 24.6459 27.3292 24.6329C27.8107 24.6264 27.8118 23.8715 27.3292 23.878C22.791 23.9405 18.6798 26.8406 17.1325 31.1567C15.5958 35.4566 16.9495 40.4296 20.4443 43.3296C22.3858 44.9403 24.8147 45.8349 27.3292 45.8652C27.4281 45.8638 27.5226 45.8236 27.5925 45.7531C27.6624 45.6826 27.7024 45.5874 27.7037 45.4877V24.2554C27.7069 23.7701 26.9579 23.769 26.9579 24.2554Z"
                fill="#333333"
            />
            <path
                d="M27.345 24.2068V45.4391C27.3464 45.5387 27.3863 45.6339 27.4562 45.7044C27.5261 45.7749 27.3573 45.8352 27.4562 45.8366C31.9944 45.774 36.3689 42.8539 37.9163 38.5378C39.4572 34.2411 38.1046 29.2628 34.6086 26.3595C32.6657 24.7496 30.2356 23.8566 27.7206 23.8283C27.662 23.8275 25.7733 23.985 25.7289 24.0039C25.4079 24.1412 27.2966 24.5775 27.7206 24.5832C31.9121 24.6414 35.7568 27.3129 37.195 31.3076C37.7524 32.8493 37.9342 34.5033 37.7252 36.1306C37.5161 37.7579 36.9224 39.3107 35.9939 40.6585C35.0653 42.0063 33.8292 43.1097 32.3895 43.8757C30.9498 44.6418 29.3486 45.0481 27.7206 45.0605L28.0951 45.438V24.2068C28.0942 23.8016 27.5741 23.7339 27.4006 24.0039C27.3658 24.058 27.345 24.1256 27.345 24.2068Z"
                fill="#333333"
            />
            <path
                d="M24.5947 31.8835C24.4716 29.4752 20.7916 29.4742 20.6686 31.8835C20.644 32.3688 21.393 32.3678 21.4176 31.8835C21.4915 30.4459 23.7718 30.4437 23.8456 31.8835C23.8702 32.3667 24.6193 32.3699 24.5947 31.8835Z"
                fill="#333333"
            />
            <path
                d="M31.583 38.1401C33.1153 37.8036 33.9864 36.2355 33.6985 34.7202C33.4053 33.1758 32.0067 32.1254 30.4615 32.3594C29.9864 32.4316 30.1887 33.1585 30.6606 33.0874C33.2213 32.6991 33.9018 36.8621 31.3829 37.4121C30.912 37.52 31.1111 38.2436 31.5819 38.1401H31.583Z"
                fill="#333333"
            />
            <path
                d="M21.6345 34.5668C21.0203 36.2417 19.2964 37.3105 17.5543 36.741C17.0952 36.5911 16.8983 37.3191 17.3553 37.469C19.5061 38.1722 21.6067 36.8111 22.3568 34.7728C22.5248 34.3166 21.8004 34.1192 21.6345 34.5722V34.5668Z"
                fill="#333333"
            />
        </svg>